<svg
xmlns="http://www.w3.org/2000/svg"
width="40"
height="40"
viewBox="0 0 40 40"
>
  <defs>
    <linearGradient id="linear-gradient">
      <stop offset="0%" stop-color="#0ea5e9" />
      <stop offset="100%" stop-color="#0284c7" />
    </linearGradient>
  </defs>
  <path
    d="M19.089 1.233c.497.39.925.793 1.356 1.255l.286.29c.654.697.977 1.201.958 2.199-.255.433-.255.433-.533.711-.926-.079-1.382-.366-2.089-.956-1.72-1.352-3.386-1.568-5.556-1.354-.558.149-.961.367-1.422.711l-.369.262c-.956.748-1.601 1.586-1.942 2.76-.132 1.261-.094 2.364.356 3.556.655-.126 1.188-.405 1.778-.711 1.852-.963 3.786-.97 5.767-.356a38 38 0 0 1 .988.356l-.078.844-.044.475c-.056.458-.056.458-.146.787-.489 2.122-.284 4.81.623 6.782l.222.483c.965 1.82 2.482 2.774 4.387 3.446a8.6 8.6 0 0 0 1.969.337l-.306-.19c-1.952-1.248-3.333-2.783-3.903-5.099-.301-3.02-.325-6.212 1.542-8.754.613.204.677.319 1.013.844l.262.407.269.427.276.425c.669 1.048.669 1.048.669 1.452l.435-.087c.743-.106 1.461-.116 2.21-.113l.412-.002a11 11 0 0 1 1.972.158c.655.109.655.109 1.106-.239l.366-.417.402-.444.386-.456.689-.8.287-.35c.269-.272.269-.272.802-.45.289 1.02.414 1.938.422 2.996l.005.444q.004.462.005.925.005.696.02 1.393c.026 2.658-.51 4.681-2.366 6.669-.972.939-2.22 1.618-3.597 1.618l-.106.578c-.484 2.564-1.115 5.088-1.76 7.615q-.278 1.09-.548 2.183c-1.176 4.741-1.176 4.741-2.208 5.98-.478.111-.478.111-.889 0-.464-.464-.522-.81-.551-1.455l.006-.426.005-.485.008-.521.009-1.097q.008-.863.02-1.725.011-.833.015-1.667l.01-.519c.004-.932-.033-1.625-.589-2.416-.603-.251-.603-.251-1.244-.178-.635.633-.853 1.216-1.055 2.078l-.086.36c-.325 1.411-.585 2.837-.843 4.262-.581 3.155-.581 3.155-1.216 3.789-.467-.067-.467-.067-.889-.178-.416-1.118-.657-2.192-.806-3.374l-.067-.5-.205-1.571-.138-1.041-.135-1.022-.066-.502a130 130 0 0 1-.276-2.219l-.044-.367q-.055-.473-.107-.946a4.5 4.5 0 0 0-.645-1.614c-.639-.174-.639-.174-1.244-.178-1.175 2.155-1.129 4.702-1.244 7.1-.073 1.508-.153 3.012-.333 4.512l-.076.642c-.127.561-.256.849-.657 1.257-.444.089-.444.089-.889 0-.591-.606-.791-1.376-1.033-2.167l-.138-.446c-.972-3.217-1.66-6.52-2.28-9.821a128 128 0 0 0-.317-1.591c-.741-3.795-1.066-7.789.444-11.419.18-.497.18-.497-.049-.859l-.293-.309C4.956 11.357 4.97 9.223 5.156 6.933c.197-1.33.802-2.315 1.6-3.378l.389-.556C9.936-.21 15.541-.805 19.089 1.232"
    fill="url(#linear-gradient)"
  />
</svg>
